<svg xmlns="http://www.w3.org/2000/svg" xmlns:v="https://svgstorm.com"
viewBox = "0 0 512 512"
width="512"
height="512">
<g fill="None" fill-opacity="0.0" stroke="#03045E" stroke-opacity="1.00" stroke-width="0.3"><path d="
M 0.00 512.00 
L 512.00 512.00
L 512.00 0.00
L 0.00 0.00
L 0.00 512.00
M 286.00 90.00 
C 294.69 92.50 290.60 110.78 281.78 107.22 C 272.95 103.66 275.98 87.11 286.00 90.00
M 167.00 91.00 
C 174.64 92.55 175.80 108.79 166.00 109.00 C 156.19 109.20 157.44 89.06 167.00 91.00
M 224.00 91.00 
C 231.56 96.14 228.45 111.15 218.00 109.00
C 216.06 104.28 214.05 99.56 215.00 94.00
C 218.12 93.43 220.76 91.32 224.00 91.00
M 131.00 108.00 
C 128.56 102.43 128.89 97.08 132.00 92.00
C 145.84 88.57 144.00 112.27 131.00 108.00
M 195.00 92.00 
C 202.63 92.75 201.65 108.25 193.00 108.00 C 184.34 107.74 186.96 91.21 195.00 92.00
M 110.00 93.00 
C 117.05 94.99 113.14 112.97 104.78 108.22 C 96.41 103.47 103.45 91.15 110.00 93.00
M 441.00 93.00 
C 447.98 95.83 443.66 112.81 435.78 108.22 C 427.90 103.63 433.24 89.86 441.00 93.00
M 82.00 96.00 
C 81.89 98.80 84.94 100.02 87.00 101.00
C 86.20 105.71 84.24 109.35 82.00 113.00
C 69.65 114.52 68.36 92.21 82.00 96.00
M 409.00 143.00 
C 407.98 135.89 407.27 128.73 412.00 123.00
C 423.74 125.46 422.66 146.02 409.00 143.00
M 81.00 142.00 
C 74.32 145.87 68.78 141.43 68.00 134.00
C 74.72 123.19 84.63 131.03 81.00 142.00
M 289.00 131.00 
C 292.75 136.99 287.00 151.08 279.75 144.25 C 272.50 137.42 280.49 124.75 289.00 131.00
M 380.00 164.00 
C 379.64 154.04 391.15 148.90 392.98 161.02 C 394.80 173.15 383.37 174.13 380.00 164.00
M 83.00 178.00 
C 72.82 182.38 66.01 167.73 74.75 162.75 C 83.48 157.76 87.08 171.75 83.00 178.00
M 286.00 171.00 
C 289.13 175.08 293.69 185.13 285.75 188.75 C 277.81 192.37 273.62 178.73 277.00 173.00
C 279.92 171.06 282.98 171.45 286.00 171.00
M 371.00 187.00 
C 369.14 191.46 369.02 201.60 362.00 199.00 C 354.98 196.40 356.23 191.03 358.92 184.92 C 361.62 178.82 368.85 182.59 371.00 187.00
M 87.00 209.00 
C 85.54 212.88 83.25 216.50 84.00 221.00
C 76.32 223.72 68.81 217.08 72.33 209.33 C 75.85 201.58 82.35 205.13 87.00 209.00
M 346.00 217.00 
C 348.19 227.55 335.08 234.75 332.08 223.92 C 329.07 213.09 340.76 208.99 346.00 217.00
M 284.00 213.00 
C 288.83 217.33 295.48 224.67 287.75 230.75 C 280.02 236.83 275.32 225.25 277.00 218.00
C 280.23 218.00 282.29 215.06 284.00 213.00
M 96.00 240.00 
C 103.32 239.33 113.38 249.42 103.75 255.75 C 94.12 262.09 91.89 246.25 96.00 240.00
M 133.00 240.00 
C 141.07 242.17 137.87 259.29 129.00 257.00 C 120.12 254.71 124.59 237.74 133.00 240.00
M 166.00 240.00 
C 173.47 242.37 170.20 259.03 162.00 256.00 C 153.80 252.97 158.03 237.47 166.00 240.00
M 187.00 242.00 
C 194.14 236.17 202.69 246.66 195.75 253.75 C 188.80 260.84 181.42 248.63 187.00 242.00
M 85.00 247.00 
C 84.02 252.91 80.63 260.34 73.00 258.00
C 65.82 248.59 76.80 234.88 85.00 247.00
M 314.00 243.00 
C 321.41 245.70 318.38 264.97 309.78 261.22 C 301.18 257.47 305.66 239.96 314.00 243.00
M 286.00 261.00 
C 290.14 264.59 293.84 276.22 285.92 278.92 C 277.99 281.61 275.41 267.67 278.00 262.00
C 281.08 263.11 283.03 261.83 286.00 261.00
M 339.00 275.00 
C 346.67 277.62 345.95 294.76 336.97 293.97 C 328.00 293.19 329.62 271.80 339.00 275.00
M 83.00 284.00 
C 83.53 288.54 81.28 292.39 82.00 297.00
C 78.75 297.91 75.74 299.78 72.00 299.00
C 66.05 290.87 73.25 275.93 83.00 284.00
M 362.00 306.00 
C 369.63 308.68 365.11 326.69 357.33 322.67 C 349.54 318.65 351.72 302.38 362.00 306.00
M 289.00 309.00 
C 289.76 313.62 294.42 321.45 287.75 324.75 C 281.08 328.06 276.54 320.61 276.00 315.00
C 279.91 311.27 282.61 307.18 289.00 309.00
M 83.00 336.00 
C 79.51 337.23 76.04 338.69 72.00 338.00
C 70.82 333.10 66.96 323.33 75.08 321.08 C 83.21 318.84 85.30 330.22 83.00 336.00
M 378.00 342.00 
C 385.57 335.73 395.48 345.56 389.22 354.22 C 382.97 362.88 373.89 349.62 378.00 342.00
M 288.00 373.00 
C 278.46 374.46 272.81 361.23 282.23 356.23 C 291.65 351.24 292.94 367.44 288.00 373.00
M 81.00 358.00 
C 85.35 362.58 83.69 376.26 74.99 373.99 C 66.29 371.72 71.63 359.88 75.00 356.00
C 77.34 355.80 78.38 358.93 81.00 358.00
M 404.00 390.00 
C 399.17 381.13 407.65 367.46 414.92 376.08 C 422.18 384.71 411.54 395.60 404.00 390.00
M 77.00 417.00 
C 66.75 418.64 64.55 401.12 73.23 399.23 C 81.91 397.34 82.43 412.37 77.00 417.00
M 220.00 399.00 
C 229.29 401.39 225.12 420.50 215.93 417.93 C 206.73 415.35 212.05 396.96 220.00 399.00
M 188.00 400.00 
C 195.05 400.59 203.60 413.39 193.92 417.92 C 184.24 422.45 182.57 404.86 188.00 400.00
M 288.00 419.00 
C 278.56 420.52 272.75 406.69 282.25 401.25 C 291.74 395.80 292.70 413.93 288.00 419.00
M 111.00 401.00 
C 113.08 406.05 112.26 410.41 112.00 416.00
C 98.49 428.04 94.44 396.01 111.00 401.00
M 167.00 402.00 
C 173.45 404.40 170.67 421.67 162.33 418.67 C 153.99 415.66 158.46 398.82 167.00 402.00
M 135.00 403.00 
C 143.84 403.59 142.63 420.84 133.99 419.99 C 125.36 419.15 126.32 402.43 135.00 403.00
M 441.00 418.00 
C 430.82 429.52 423.25 412.22 430.00 404.00
C 436.65 405.72 440.91 411.15 441.00 418.00 Z"/>
</g>
<g fill="None" fill-opacity="0.0" stroke="#C1E5F1" stroke-opacity="1.00" stroke-width="0.3"><path d="
M 286.00 90.00 
C 275.98 87.11 272.95 103.66 281.78 107.22 C 290.60 110.78 294.69 92.50 286.00 90.00 Z"/>
</g>
<g fill="None" fill-opacity="0.0" stroke="#C1E5F1" stroke-opacity="1.00" stroke-width="0.3"><path d="
M 167.00 91.00 
C 157.44 89.06 156.19 109.20 166.00 109.00 C 175.80 108.79 174.64 92.55 167.00 91.00 Z"/>
</g>
<g fill="None" fill-opacity="0.0" stroke="#C1E6F1" stroke-opacity="1.00" stroke-width="0.3"><path d="
M 224.00 91.00 
C 220.76 91.32 218.12 93.43 215.00 94.00
C 214.05 99.56 216.06 104.28 218.00 109.00
C 228.45 111.15 231.56 96.14 224.00 91.00 Z"/>
</g>
<g fill="None" fill-opacity="0.0" stroke="#C2E6F2" stroke-opacity="1.00" stroke-width="0.3"><path d="
M 131.00 108.00 
C 144.00 112.27 145.84 88.57 132.00 92.00
C 128.89 97.08 128.56 102.43 131.00 108.00 Z"/>
</g>
<g fill="None" fill-opacity="0.0" stroke="#C2E6F2" stroke-opacity="1.00" stroke-width="0.3"><path d="
M 195.00 92.00 
C 186.96 91.21 184.34 107.74 193.00 108.00 C 201.65 108.25 202.63 92.75 195.00 92.00 Z"/>
</g>
<g fill="None" fill-opacity="0.0" stroke="#C3E7F2" stroke-opacity="1.00" stroke-width="0.3"><path d="
M 110.00 93.00 
C 103.45 91.15 96.41 103.47 104.78 108.22 C 113.14 112.97 117.05 94.99 110.00 93.00 Z"/>
</g>
<g fill="None" fill-opacity="0.0" stroke="#C4EAF4" stroke-opacity="1.00" stroke-width="0.3"><path d="
M 441.00 93.00 
C 433.24 89.86 427.90 103.63 435.78 108.22 C 443.66 112.81 447.98 95.83 441.00 93.00 Z"/>
</g>
<g fill="None" fill-opacity="0.0" stroke="#C1E6F1" stroke-opacity="1.00" stroke-width="0.3"><path d="
M 82.00 96.00 
C 68.36 92.21 69.65 114.52 82.00 113.00
C 84.24 109.35 86.20 105.71 87.00 101.00
C 84.94 100.02 81.89 98.80 82.00 96.00 Z"/>
</g>
<g fill="None" fill-opacity="0.0" stroke="#C0E4F0" stroke-opacity="1.00" stroke-width="0.3"><path d="
M 409.00 143.00 
C 422.66 146.02 423.74 125.46 412.00 123.00
C 407.27 128.73 407.98 135.89 409.00 143.00 Z"/>
</g>
<g fill="None" fill-opacity="0.0" stroke="#C3E8F2" stroke-opacity="1.00" stroke-width="0.3"><path d="
M 81.00 142.00 
C 84.63 131.03 74.72 123.19 68.00 134.00
C 68.78 141.43 74.32 145.87 81.00 142.00 Z"/>
</g>
<g fill="None" fill-opacity="0.0" stroke="#C0E4F0" stroke-opacity="1.00" stroke-width="0.3"><path d="
M 289.00 131.00 
C 280.49 124.75 272.50 137.42 279.75 144.25 C 287.00 151.08 292.75 136.99 289.00 131.00 Z"/>
</g>
<g fill="None" fill-opacity="0.0" stroke="#C0E4F0" stroke-opacity="1.00" stroke-width="0.3"><path d="
M 380.00 164.00 
C 383.37 174.13 394.80 173.15 392.98 161.02 C 391.15 148.90 379.64 154.04 380.00 164.00 Z"/>
</g>
<g fill="None" fill-opacity="0.0" stroke="#C3E8F3" stroke-opacity="1.00" stroke-width="0.3"><path d="
M 83.00 178.00 
C 87.08 171.75 83.48 157.76 74.75 162.75 C 66.01 167.73 72.82 182.38 83.00 178.00 Z"/>
</g>
<g fill="None" fill-opacity="0.0" stroke="#C5EAF4" stroke-opacity="1.00" stroke-width="0.3"><path d="
M 286.00 171.00 
C 282.98 171.45 279.92 171.06 277.00 173.00
C 273.62 178.73 277.81 192.37 285.75 188.75 C 293.69 185.13 289.13 175.08 286.00 171.00 Z"/>
</g>
<g fill="None" fill-opacity="0.0" stroke="#C2E7F2" stroke-opacity="1.00" stroke-width="0.3"><path d="
M 371.00 187.00 
C 368.85 182.59 361.62 178.82 358.92 184.92 C 356.23 191.03 354.98 196.40 362.00 199.00 C 369.02 201.60 369.14 191.46 371.00 187.00 Z"/>
</g>
<g fill="None" fill-opacity="0.0" stroke="#C2E6F2" stroke-opacity="1.00" stroke-width="0.3"><path d="
M 87.00 209.00 
C 82.35 205.13 75.85 201.58 72.33 209.33 C 68.81 217.08 76.32 223.72 84.00 221.00
C 83.25 216.50 85.54 212.88 87.00 209.00 Z"/>
</g>
<g fill="None" fill-opacity="0.0" stroke="#C3E7F2" stroke-opacity="1.00" stroke-width="0.3"><path d="
M 346.00 217.00 
C 340.76 208.99 329.07 213.09 332.08 223.92 C 335.08 234.75 348.19 227.55 346.00 217.00 Z"/>
</g>
<g fill="None" fill-opacity="0.0" stroke="#C3E8F3" stroke-opacity="1.00" stroke-width="0.3"><path d="
M 284.00 213.00 
C 282.29 215.06 280.23 218.00 277.00 218.00
C 275.32 225.25 280.02 236.83 287.75 230.75 C 295.48 224.67 288.83 217.33 284.00 213.00 Z"/>
</g>
<g fill="None" fill-opacity="0.0" stroke="#C0E5F1" stroke-opacity="1.00" stroke-width="0.3"><path d="
M 96.00 240.00 
C 91.89 246.25 94.12 262.09 103.75 255.75 C 113.38 249.42 103.32 239.33 96.00 240.00 Z"/>
</g>
<g fill="None" fill-opacity="0.0" stroke="#C0E5F1" stroke-opacity="1.00" stroke-width="0.3"><path d="
M 133.00 240.00 
C 124.59 237.74 120.12 254.71 129.00 257.00 C 137.87 259.29 141.07 242.17 133.00 240.00 Z"/>
</g>
<g fill="None" fill-opacity="0.0" stroke="#C5EAF4" stroke-opacity="1.00" stroke-width="0.3"><path d="
M 166.00 240.00 
C 158.03 237.47 153.80 252.97 162.00 256.00 C 170.20 259.03 173.47 242.37 166.00 240.00 Z"/>
</g>
<g fill="None" fill-opacity="0.0" stroke="#C2E7F2" stroke-opacity="1.00" stroke-width="0.3"><path d="
M 187.00 242.00 
C 181.42 248.63 188.80 260.84 195.75 253.75 C 202.69 246.66 194.14 236.17 187.00 242.00 Z"/>
</g>
<g fill="None" fill-opacity="0.0" stroke="#C4E9F3" stroke-opacity="1.00" stroke-width="0.3"><path d="
M 85.00 247.00 
C 76.80 234.88 65.82 248.59 73.00 258.00
C 80.63 260.34 84.02 252.91 85.00 247.00 Z"/>
</g>
<g fill="None" fill-opacity="0.0" stroke="#BFE3F0" stroke-opacity="1.00" stroke-width="0.3"><path d="
M 314.00 243.00 
C 305.66 239.96 301.18 257.47 309.78 261.22 C 318.38 264.97 321.41 245.70 314.00 243.00 Z"/>
</g>
<g fill="None" fill-opacity="0.0" stroke="#C0E4F0" stroke-opacity="1.00" stroke-width="0.3"><path d="
M 286.00 261.00 
C 283.03 261.83 281.08 263.11 278.00 262.00
C 275.41 267.67 277.99 281.61 285.92 278.92 C 293.84 276.22 290.14 264.59 286.00 261.00 Z"/>
</g>
<g fill="None" fill-opacity="0.0" stroke="#C1E6F1" stroke-opacity="1.00" stroke-width="0.3"><path d="
M 339.00 275.00 
C 329.62 271.80 328.00 293.19 336.97 293.97 C 345.95 294.76 346.67 277.62 339.00 275.00 Z"/>
</g>
<g fill="None" fill-opacity="0.0" stroke="#C5EAF4" stroke-opacity="1.00" stroke-width="0.3"><path d="
M 83.00 284.00 
C 73.25 275.93 66.05 290.87 72.00 299.00
C 75.74 299.78 78.75 297.91 82.00 297.00
C 81.28 292.39 83.53 288.54 83.00 284.00 Z"/>
</g>
<g fill="None" fill-opacity="0.0" stroke="#C3E8F3" stroke-opacity="1.00" stroke-width="0.3"><path d="
M 362.00 306.00 
C 351.72 302.38 349.54 318.65 357.33 322.67 C 365.11 326.69 369.63 308.68 362.00 306.00 Z"/>
</g>
<g fill="None" fill-opacity="0.0" stroke="#C0E5F1" stroke-opacity="1.00" stroke-width="0.3"><path d="
M 289.00 309.00 
C 282.61 307.18 279.91 311.27 276.00 315.00
C 276.54 320.61 281.08 328.06 287.75 324.75 C 294.42 321.45 289.76 313.62 289.00 309.00 Z"/>
</g>
<g fill="None" fill-opacity="0.0" stroke="#C4E9F3" stroke-opacity="1.00" stroke-width="0.3"><path d="
M 83.00 336.00 
C 85.30 330.22 83.21 318.84 75.08 321.08 C 66.96 323.33 70.82 333.10 72.00 338.00
C 76.04 338.69 79.51 337.23 83.00 336.00 Z"/>
</g>
<g fill="None" fill-opacity="0.0" stroke="#C5EAF4" stroke-opacity="1.00" stroke-width="0.3"><path d="
M 378.00 342.00 
C 373.89 349.62 382.97 362.88 389.22 354.22 C 395.48 345.56 385.57 335.73 378.00 342.00 Z"/>
</g>
<g fill="None" fill-opacity="0.0" stroke="#C2E6F2" stroke-opacity="1.00" stroke-width="0.3"><path d="
M 288.00 373.00 
C 292.94 367.44 291.65 351.24 282.23 356.23 C 272.81 361.23 278.46 374.46 288.00 373.00 Z"/>
</g>
<g fill="None" fill-opacity="0.0" stroke="#C1E6F1" stroke-opacity="1.00" stroke-width="0.3"><path d="
M 81.00 358.00 
C 78.38 358.93 77.34 355.80 75.00 356.00
C 71.63 359.88 66.29 371.72 74.99 373.99 C 83.69 376.26 85.35 362.58 81.00 358.00 Z"/>
</g>
<g fill="None" fill-opacity="0.0" stroke="#C3E8F3" stroke-opacity="1.00" stroke-width="0.3"><path d="
M 404.00 390.00 
C 411.54 395.60 422.18 384.71 414.92 376.08 C 407.65 367.46 399.17 381.13 404.00 390.00 Z"/>
</g>
<g fill="None" fill-opacity="0.0" stroke="#C4E9F3" stroke-opacity="1.00" stroke-width="0.3"><path d="
M 77.00 417.00 
C 82.43 412.37 81.91 397.34 73.23 399.23 C 64.55 401.12 66.75 418.64 77.00 417.00 Z"/>
</g>
<g fill="None" fill-opacity="0.0" stroke="#BEE3EF" stroke-opacity="1.00" stroke-width="0.3"><path d="
M 220.00 399.00 
C 212.05 396.96 206.73 415.35 215.93 417.93 C 225.12 420.50 229.29 401.39 220.00 399.00 Z"/>
</g>
<g fill="None" fill-opacity="0.0" stroke="#C4E9F3" stroke-opacity="1.00" stroke-width="0.3"><path d="
M 188.00 400.00 
C 182.57 404.86 184.24 422.45 193.92 417.92 C 203.60 413.39 195.05 400.59 188.00 400.00 Z"/>
</g>
<g fill="None" fill-opacity="0.0" stroke="#C2E7F2" stroke-opacity="1.00" stroke-width="0.3"><path d="
M 288.00 419.00 
C 292.70 413.93 291.74 395.80 282.25 401.25 C 272.75 406.69 278.56 420.52 288.00 419.00 Z"/>
</g>
<g fill="None" fill-opacity="0.0" stroke="#C0E5F1" stroke-opacity="1.00" stroke-width="0.3"><path d="
M 111.00 401.00 
C 94.44 396.01 98.49 428.04 112.00 416.00
C 112.26 410.41 113.08 406.05 111.00 401.00 Z"/>
</g>
<g fill="None" fill-opacity="0.0" stroke="#C2E7F2" stroke-opacity="1.00" stroke-width="0.3"><path d="
M 167.00 402.00 
C 158.46 398.82 153.99 415.66 162.33 418.67 C 170.67 421.67 173.45 404.40 167.00 402.00 Z"/>
</g>
<g fill="None" fill-opacity="0.0" stroke="#C1E6F1" stroke-opacity="1.00" stroke-width="0.3"><path d="
M 135.00 403.00 
C 126.32 402.43 125.36 419.15 133.99 419.99 C 142.63 420.84 143.84 403.59 135.00 403.00 Z"/>
</g>
<g fill="None" fill-opacity="0.0" stroke="#C3E8F3" stroke-opacity="1.00" stroke-width="0.3"><path d="
M 441.00 418.00 
C 440.91 411.15 436.65 405.72 430.00 404.00
C 423.25 412.22 430.82 429.52 441.00 418.00 Z"/>
</g>
<g fill="#03045E" fill-opacity="1.00" stroke="None">
<path d="
M 0.00 512.00 
L 512.00 512.00
L 512.00 0.00
L 0.00 0.00
L 0.00 512.00
M 286.00 90.00 
C 294.69 92.50 290.60 110.78 281.78 107.22 C 272.95 103.66 275.98 87.11 286.00 90.00
M 167.00 91.00 
C 174.64 92.55 175.80 108.79 166.00 109.00 C 156.19 109.20 157.44 89.06 167.00 91.00
M 224.00 91.00 
C 231.56 96.14 228.45 111.15 218.00 109.00
C 216.06 104.28 214.05 99.56 215.00 94.00
C 218.12 93.43 220.76 91.32 224.00 91.00
M 131.00 108.00 
C 128.56 102.43 128.89 97.08 132.00 92.00
C 145.84 88.57 144.00 112.27 131.00 108.00
M 195.00 92.00 
C 202.63 92.75 201.65 108.25 193.00 108.00 C 184.34 107.74 186.96 91.21 195.00 92.00
M 110.00 93.00 
C 117.05 94.99 113.14 112.97 104.78 108.22 C 96.41 103.47 103.45 91.15 110.00 93.00
M 441.00 93.00 
C 447.98 95.83 443.66 112.81 435.78 108.22 C 427.90 103.63 433.24 89.86 441.00 93.00
M 82.00 96.00 
C 81.89 98.80 84.94 100.02 87.00 101.00
C 86.20 105.71 84.24 109.35 82.00 113.00
C 69.65 114.52 68.36 92.21 82.00 96.00
M 409.00 143.00 
C 407.98 135.89 407.27 128.73 412.00 123.00
C 423.74 125.46 422.66 146.02 409.00 143.00
M 81.00 142.00 
C 74.32 145.87 68.78 141.43 68.00 134.00
C 74.72 123.19 84.63 131.03 81.00 142.00
M 289.00 131.00 
C 292.75 136.99 287.00 151.08 279.75 144.25 C 272.50 137.42 280.49 124.75 289.00 131.00
M 380.00 164.00 
C 379.64 154.04 391.15 148.90 392.98 161.02 C 394.80 173.15 383.37 174.13 380.00 164.00
M 83.00 178.00 
C 72.82 182.38 66.01 167.73 74.75 162.75 C 83.48 157.76 87.08 171.75 83.00 178.00
M 286.00 171.00 
C 289.13 175.08 293.69 185.13 285.75 188.75 C 277.81 192.37 273.62 178.73 277.00 173.00
C 279.92 171.06 282.98 171.45 286.00 171.00
M 371.00 187.00 
C 369.14 191.46 369.02 201.60 362.00 199.00 C 354.98 196.40 356.23 191.03 358.92 184.92 C 361.62 178.82 368.85 182.59 371.00 187.00
M 87.00 209.00 
C 85.54 212.88 83.25 216.50 84.00 221.00
C 76.32 223.72 68.81 217.08 72.33 209.33 C 75.85 201.58 82.35 205.13 87.00 209.00
M 346.00 217.00 
C 348.19 227.55 335.08 234.75 332.08 223.92 C 329.07 213.09 340.76 208.99 346.00 217.00
M 284.00 213.00 
C 288.83 217.33 295.48 224.67 287.75 230.75 C 280.02 236.83 275.32 225.25 277.00 218.00
C 280.23 218.00 282.29 215.06 284.00 213.00
M 96.00 240.00 
C 103.32 239.33 113.38 249.42 103.75 255.75 C 94.12 262.09 91.89 246.25 96.00 240.00
M 133.00 240.00 
C 141.07 242.17 137.87 259.29 129.00 257.00 C 120.12 254.71 124.59 237.74 133.00 240.00
M 166.00 240.00 
C 173.47 242.37 170.20 259.03 162.00 256.00 C 153.80 252.97 158.03 237.47 166.00 240.00
M 187.00 242.00 
C 194.14 236.17 202.69 246.66 195.75 253.75 C 188.80 260.84 181.42 248.63 187.00 242.00
M 85.00 247.00 
C 84.02 252.91 80.63 260.34 73.00 258.00
C 65.82 248.59 76.80 234.88 85.00 247.00
M 314.00 243.00 
C 321.41 245.70 318.38 264.97 309.78 261.22 C 301.18 257.47 305.66 239.96 314.00 243.00
M 286.00 261.00 
C 290.14 264.59 293.84 276.22 285.92 278.92 C 277.99 281.61 275.41 267.67 278.00 262.00
C 281.08 263.11 283.03 261.83 286.00 261.00
M 339.00 275.00 
C 346.67 277.62 345.95 294.76 336.97 293.97 C 328.00 293.19 329.62 271.80 339.00 275.00
M 83.00 284.00 
C 83.53 288.54 81.28 292.39 82.00 297.00
C 78.75 297.91 75.74 299.78 72.00 299.00
C 66.05 290.87 73.25 275.93 83.00 284.00
M 362.00 306.00 
C 369.63 308.68 365.11 326.69 357.33 322.67 C 349.54 318.65 351.72 302.38 362.00 306.00
M 289.00 309.00 
C 289.76 313.62 294.42 321.45 287.75 324.75 C 281.08 328.06 276.54 320.61 276.00 315.00
C 279.91 311.27 282.61 307.18 289.00 309.00
M 83.00 336.00 
C 79.51 337.23 76.04 338.69 72.00 338.00
C 70.82 333.10 66.96 323.33 75.08 321.08 C 83.21 318.84 85.30 330.22 83.00 336.00
M 378.00 342.00 
C 385.57 335.73 395.48 345.56 389.22 354.22 C 382.97 362.88 373.89 349.62 378.00 342.00
M 288.00 373.00 
C 278.46 374.46 272.81 361.23 282.23 356.23 C 291.65 351.24 292.94 367.44 288.00 373.00
M 81.00 358.00 
C 85.35 362.58 83.69 376.26 74.99 373.99 C 66.29 371.72 71.63 359.88 75.00 356.00
C 77.34 355.80 78.38 358.93 81.00 358.00
M 404.00 390.00 
C 399.17 381.13 407.65 367.46 414.92 376.08 C 422.18 384.71 411.54 395.60 404.00 390.00
M 77.00 417.00 
C 66.75 418.64 64.55 401.12 73.23 399.23 C 81.91 397.34 82.43 412.37 77.00 417.00
M 220.00 399.00 
C 229.29 401.39 225.12 420.50 215.93 417.93 C 206.73 415.35 212.05 396.96 220.00 399.00
M 188.00 400.00 
C 195.05 400.59 203.60 413.39 193.92 417.92 C 184.24 422.45 182.57 404.86 188.00 400.00
M 288.00 419.00 
C 278.56 420.52 272.75 406.69 282.25 401.25 C 291.74 395.80 292.70 413.93 288.00 419.00
M 111.00 401.00 
C 113.08 406.05 112.26 410.41 112.00 416.00
C 98.49 428.04 94.44 396.01 111.00 401.00
M 167.00 402.00 
C 173.45 404.40 170.67 421.67 162.33 418.67 C 153.99 415.66 158.46 398.82 167.00 402.00
M 135.00 403.00 
C 143.84 403.59 142.63 420.84 133.99 419.99 C 125.36 419.15 126.32 402.43 135.00 403.00
M 441.00 418.00 
C 430.82 429.52 423.25 412.22 430.00 404.00
C 436.65 405.72 440.91 411.15 441.00 418.00 Z"/>
</g>
<g fill="#C1E5F1" fill-opacity="1.00" stroke="None">
<path d="
M 286.00 90.00 
C 275.98 87.11 272.95 103.66 281.78 107.22 C 290.60 110.78 294.69 92.50 286.00 90.00 Z"/>
</g>
<g fill="#C1E5F1" fill-opacity="1.00" stroke="None">
<path d="
M 167.00 91.00 
C 157.44 89.06 156.19 109.20 166.00 109.00 C 175.80 108.79 174.64 92.55 167.00 91.00 Z"/>
</g>
<g fill="#C1E6F1" fill-opacity="1.00" stroke="None">
<path d="
M 224.00 91.00 
C 220.76 91.32 218.12 93.43 215.00 94.00
C 214.05 99.56 216.06 104.28 218.00 109.00
C 228.45 111.15 231.56 96.14 224.00 91.00 Z"/>
</g>
<g fill="#C2E6F2" fill-opacity="1.00" stroke="None">
<path d="
M 131.00 108.00 
C 144.00 112.27 145.84 88.57 132.00 92.00
C 128.89 97.08 128.56 102.43 131.00 108.00 Z"/>
</g>
<g fill="#C2E6F2" fill-opacity="1.00" stroke="None">
<path d="
M 195.00 92.00 
C 186.96 91.21 184.34 107.74 193.00 108.00 C 201.65 108.25 202.63 92.75 195.00 92.00 Z"/>
</g>
<g fill="#C3E7F2" fill-opacity="1.00" stroke="None">
<path d="
M 110.00 93.00 
C 103.45 91.15 96.41 103.47 104.78 108.22 C 113.14 112.97 117.05 94.99 110.00 93.00 Z"/>
</g>
<g fill="#C4EAF4" fill-opacity="1.00" stroke="None">
<path d="
M 441.00 93.00 
C 433.24 89.86 427.90 103.63 435.78 108.22 C 443.66 112.81 447.98 95.83 441.00 93.00 Z"/>
</g>
<g fill="#C1E6F1" fill-opacity="1.00" stroke="None">
<path d="
M 82.00 96.00 
C 68.36 92.21 69.65 114.52 82.00 113.00
C 84.24 109.35 86.20 105.71 87.00 101.00
C 84.94 100.02 81.89 98.80 82.00 96.00 Z"/>
</g>
<g fill="#C0E4F0" fill-opacity="1.00" stroke="None">
<path d="
M 409.00 143.00 
C 422.66 146.02 423.74 125.46 412.00 123.00
C 407.27 128.73 407.98 135.89 409.00 143.00 Z"/>
</g>
<g fill="#C3E8F2" fill-opacity="1.00" stroke="None">
<path d="
M 81.00 142.00 
C 84.63 131.03 74.72 123.19 68.00 134.00
C 68.78 141.43 74.32 145.87 81.00 142.00 Z"/>
</g>
<g fill="#C0E4F0" fill-opacity="1.00" stroke="None">
<path d="
M 289.00 131.00 
C 280.49 124.75 272.50 137.42 279.75 144.25 C 287.00 151.08 292.75 136.99 289.00 131.00 Z"/>
</g>
<g fill="#C0E4F0" fill-opacity="1.00" stroke="None">
<path d="
M 380.00 164.00 
C 383.37 174.13 394.80 173.15 392.98 161.02 C 391.15 148.90 379.64 154.04 380.00 164.00 Z"/>
</g>
<g fill="#C3E8F3" fill-opacity="1.00" stroke="None">
<path d="
M 83.00 178.00 
C 87.08 171.75 83.48 157.76 74.75 162.75 C 66.01 167.73 72.82 182.38 83.00 178.00 Z"/>
</g>
<g fill="#C5EAF4" fill-opacity="1.00" stroke="None">
<path d="
M 286.00 171.00 
C 282.98 171.45 279.92 171.06 277.00 173.00
C 273.62 178.73 277.81 192.37 285.75 188.75 C 293.69 185.13 289.13 175.08 286.00 171.00 Z"/>
</g>
<g fill="#C2E7F2" fill-opacity="1.00" stroke="None">
<path d="
M 371.00 187.00 
C 368.85 182.59 361.62 178.82 358.92 184.92 C 356.23 191.03 354.98 196.40 362.00 199.00 C 369.02 201.60 369.14 191.46 371.00 187.00 Z"/>
</g>
<g fill="#C2E6F2" fill-opacity="1.00" stroke="None">
<path d="
M 87.00 209.00 
C 82.35 205.13 75.85 201.58 72.33 209.33 C 68.81 217.08 76.32 223.72 84.00 221.00
C 83.25 216.50 85.54 212.88 87.00 209.00 Z"/>
</g>
<g fill="#C3E7F2" fill-opacity="1.00" stroke="None">
<path d="
M 346.00 217.00 
C 340.76 208.99 329.07 213.09 332.08 223.92 C 335.08 234.75 348.19 227.55 346.00 217.00 Z"/>
</g>
<g fill="#C3E8F3" fill-opacity="1.00" stroke="None">
<path d="
M 284.00 213.00 
C 282.29 215.06 280.23 218.00 277.00 218.00
C 275.32 225.25 280.02 236.83 287.75 230.75 C 295.48 224.67 288.83 217.33 284.00 213.00 Z"/>
</g>
<g fill="#C0E5F1" fill-opacity="1.00" stroke="None">
<path d="
M 96.00 240.00 
C 91.89 246.25 94.12 262.09 103.75 255.75 C 113.38 249.42 103.32 239.33 96.00 240.00 Z"/>
</g>
<g fill="#C0E5F1" fill-opacity="1.00" stroke="None">
<path d="
M 133.00 240.00 
C 124.59 237.74 120.12 254.71 129.00 257.00 C 137.87 259.29 141.07 242.17 133.00 240.00 Z"/>
</g>
<g fill="#C5EAF4" fill-opacity="1.00" stroke="None">
<path d="
M 166.00 240.00 
C 158.03 237.47 153.80 252.97 162.00 256.00 C 170.20 259.03 173.47 242.37 166.00 240.00 Z"/>
</g>
<g fill="#C2E7F2" fill-opacity="1.00" stroke="None">
<path d="
M 187.00 242.00 
C 181.42 248.63 188.80 260.84 195.75 253.75 C 202.69 246.66 194.14 236.17 187.00 242.00 Z"/>
</g>
<g fill="#C4E9F3" fill-opacity="1.00" stroke="None">
<path d="
M 85.00 247.00 
C 76.80 234.88 65.82 248.59 73.00 258.00
C 80.63 260.34 84.02 252.91 85.00 247.00 Z"/>
</g>
<g fill="#BFE3F0" fill-opacity="1.00" stroke="None">
<path d="
M 314.00 243.00 
C 305.66 239.96 301.18 257.47 309.78 261.22 C 318.38 264.97 321.41 245.70 314.00 243.00 Z"/>
</g>
<g fill="#C0E4F0" fill-opacity="1.00" stroke="None">
<path d="
M 286.00 261.00 
C 283.03 261.83 281.08 263.11 278.00 262.00
C 275.41 267.67 277.99 281.61 285.92 278.92 C 293.84 276.22 290.14 264.59 286.00 261.00 Z"/>
</g>
<g fill="#C1E6F1" fill-opacity="1.00" stroke="None">
<path d="
M 339.00 275.00 
C 329.62 271.80 328.00 293.19 336.97 293.97 C 345.95 294.76 346.67 277.62 339.00 275.00 Z"/>
</g>
<g fill="#C5EAF4" fill-opacity="1.00" stroke="None">
<path d="
M 83.00 284.00 
C 73.25 275.93 66.05 290.87 72.00 299.00
C 75.74 299.78 78.75 297.91 82.00 297.00
C 81.28 292.39 83.53 288.54 83.00 284.00 Z"/>
</g>
<g fill="#C3E8F3" fill-opacity="1.00" stroke="None">
<path d="
M 362.00 306.00 
C 351.72 302.38 349.54 318.65 357.33 322.67 C 365.11 326.69 369.63 308.68 362.00 306.00 Z"/>
</g>
<g fill="#C0E5F1" fill-opacity="1.00" stroke="None">
<path d="
M 289.00 309.00 
C 282.61 307.18 279.91 311.27 276.00 315.00
C 276.54 320.61 281.08 328.06 287.75 324.75 C 294.42 321.45 289.76 313.62 289.00 309.00 Z"/>
</g>
<g fill="#C4E9F3" fill-opacity="1.00" stroke="None">
<path d="
M 83.00 336.00 
C 85.30 330.22 83.21 318.84 75.08 321.08 C 66.96 323.33 70.82 333.10 72.00 338.00
C 76.04 338.69 79.51 337.23 83.00 336.00 Z"/>
</g>
<g fill="#C5EAF4" fill-opacity="1.00" stroke="None">
<path d="
M 378.00 342.00 
C 373.89 349.62 382.97 362.88 389.22 354.22 C 395.48 345.56 385.57 335.73 378.00 342.00 Z"/>
</g>
<g fill="#C2E6F2" fill-opacity="1.00" stroke="None">
<path d="
M 288.00 373.00 
C 292.94 367.44 291.65 351.24 282.23 356.23 C 272.81 361.23 278.46 374.46 288.00 373.00 Z"/>
</g>
<g fill="#C1E6F1" fill-opacity="1.00" stroke="None">
<path d="
M 81.00 358.00 
C 78.38 358.93 77.34 355.80 75.00 356.00
C 71.63 359.88 66.29 371.72 74.99 373.99 C 83.69 376.26 85.35 362.58 81.00 358.00 Z"/>
</g>
<g fill="#C3E8F3" fill-opacity="1.00" stroke="None">
<path d="
M 404.00 390.00 
C 411.54 395.60 422.18 384.71 414.92 376.08 C 407.65 367.46 399.17 381.13 404.00 390.00 Z"/>
</g>
<g fill="#C4E9F3" fill-opacity="1.00" stroke="None">
<path d="
M 77.00 417.00 
C 82.43 412.37 81.91 397.34 73.23 399.23 C 64.55 401.12 66.75 418.64 77.00 417.00 Z"/>
</g>
<g fill="#BEE3EF" fill-opacity="1.00" stroke="None">
<path d="
M 220.00 399.00 
C 212.05 396.96 206.73 415.35 215.93 417.93 C 225.12 420.50 229.29 401.39 220.00 399.00 Z"/>
</g>
<g fill="#C4E9F3" fill-opacity="1.00" stroke="None">
<path d="
M 188.00 400.00 
C 182.57 404.86 184.24 422.45 193.92 417.92 C 203.60 413.39 195.05 400.59 188.00 400.00 Z"/>
</g>
<g fill="#C2E7F2" fill-opacity="1.00" stroke="None">
<path d="
M 288.00 419.00 
C 292.70 413.93 291.74 395.80 282.25 401.25 C 272.75 406.69 278.56 420.52 288.00 419.00 Z"/>
</g>
<g fill="#C0E5F1" fill-opacity="1.00" stroke="None">
<path d="
M 111.00 401.00 
C 94.44 396.01 98.49 428.04 112.00 416.00
C 112.26 410.41 113.08 406.05 111.00 401.00 Z"/>
</g>
<g fill="#C2E7F2" fill-opacity="1.00" stroke="None">
<path d="
M 167.00 402.00 
C 158.46 398.82 153.99 415.66 162.33 418.67 C 170.67 421.67 173.45 404.40 167.00 402.00 Z"/>
</g>
<g fill="#C1E6F1" fill-opacity="1.00" stroke="None">
<path d="
M 135.00 403.00 
C 126.32 402.43 125.36 419.15 133.99 419.99 C 142.63 420.84 143.84 403.59 135.00 403.00 Z"/>
</g>
<g fill="#C3E8F3" fill-opacity="1.00" stroke="None">
<path d="
M 441.00 418.00 
C 440.91 411.15 436.65 405.72 430.00 404.00
C 423.25 412.22 430.82 429.52 441.00 418.00 Z"/>
</g>
</svg>